<?xml version="1.0" encoding="utf-8"?>
<!-- Generator: Adobe Illustrator 24.0.1, SVG Export Plug-In . SVG Version: 6.00 Build 0)  -->
<svg version="1.1" id="Layer_2" xmlns="http://www.w3.org/2000/svg" xmlns:xlink="http://www.w3.org/1999/xlink" x="0px" y="0px"
	 viewBox="0 0 797 224" style="enable-background:new 0 0 797 224;" xml:space="preserve">
<style type="text/css">
	.st0{fill:#F9F9F2;}
	.st1{fill:#F8F8F1;}
	.st2{fill:#FAF9F2;}
	.st3{fill:#AA803A;}
</style>
<path class="st0" d="M95.67,28.52c1.03,0.84,2.06,1.68,3.52,2.86c1.18,0.86,1.94,1.38,2.7,1.9c0,0,0.04-0.1,0.09,0.16
	c0.34,0.44,0.63,0.62,0.92,0.8c0,0,0.02-0.16,0.03,0.09c0.29,0.46,0.57,0.66,0.84,0.86c0,0,0.03-0.17,0.04,0.09
	c0.3,0.45,0.58,0.65,0.85,0.85c0,0,0.03-0.17,0.01,0.07c0.19,0.48,0.38,0.72,0.58,0.96c0,0,0.07,0.03,0.2,0.29
	c0.7,0.95,1.28,1.64,1.85,2.33c0,0,0.04-0.12,0.03,0.1c0.1,0.48,0.26,0.7,0.47,0.88c0,0,0.08,0.18,0.27,0.44
	c0.41,0.63,0.63,1.01,0.84,1.39c0,0,0.16,0,0.22,0.28c0.54,1.28,1.03,2.28,1.51,3.27c0,0-0.01,0.2,0.2,0.58
	c5.41,16.21,4.1,31.49-3.73,46.2c0,0-0.12,0.14-0.29,0.44c-0.62,1.03-1.07,1.75-1.52,2.48c0,0,0.14-0.02-0.11,0.17
	c-0.37,0.5-0.49,0.8-0.61,1.11c0,0,0.16,0.02-0.09,0.05c-0.4,0.33-0.56,0.63-0.72,0.93c0,0,0.09,0-0.13,0.05
	c-0.52,0.42-0.81,0.79-1.1,1.17c0,0-0.13,0.12-0.32,0.3c-0.36,0.33-0.49,0.51-0.59,0.72c0,0-0.01,0.09-0.22,0.23
	c-0.43,0.33-0.59,0.56-0.7,0.83c0,0,0.22,0.14-0.06,0.16c-0.52,0.2-0.71,0.42-0.86,0.69c0,0,0.18,0.35-0.09,0.28
	c-0.47,0.08-0.64,0.26-0.78,0.47c0,0-0.12,0.09-0.39,0.3c-0.91,0.8-1.55,1.4-2.18,2c0,0,0.13,0.03-0.17,0.06
	c-1.06,0.61-1.82,1.18-2.59,1.76c0,0,0.12,0.03-0.09,0.02c-0.48,0.05-0.71,0.18-0.91,0.37c0,0-0.25,0.05-0.51,0.24
	c-0.61,0.37-0.96,0.55-1.32,0.73c0,0-0.16,0.04-0.48,0.2c-0.95,0.5-1.58,0.83-2.2,1.17c0,0,0.12,0.03-0.23,0.06
	c-16.63,6.62-33.83,4.28-51.11,4.89c0,15.79,0,31.16,0,46.54c0,0,0.2,0.05-0.21,0.01c-9.28-0.12-18.14-0.21-27-0.3
	c0,0-0.01,0.34,0.07-0.09c0.07-5.91,0.04-11.4,0.04-16.88c0.03-41.6,0.07-83.2,0.1-124.8c0,0-0.25,0.03,0.19,0.06
	c14.89,0.01,29.33,0.04,43.78-0.06c12.85-0.09,25.36,1.6,37.27,6.67c0,0,0.02-0.12,0.11,0.14c0.64,0.43,1.19,0.61,1.73,0.78
	c0,0,0.02-0.13,0.11,0.14C93.91,27.7,94.79,28.11,95.67,28.52 M79.28,83.58c0,0,0.02,0.14,0.49-0.07c0.18-0.29,0.35-0.58,0.4-0.88
	c0,0,0.01,0.13,0.48-0.07c0.17-0.29,0.33-0.58,0.42-0.87c0,0,0.02,0.08,0.54-0.18c0.16-0.55,0.33-1.1,0.39-1.66
	c0,0,0.01,0.1,0.55-0.15c0.16-0.56,0.31-1.12,0.37-1.69c0,0,0.01,0.1,0.63-0.22c3.1-8.17,3.54-16.18-1.49-23.74
	c0,0,0.12-0.01-0.04-0.5c-0.21-0.25-0.42-0.51-0.64-0.62c0,0,0.1-0.1-0.06-0.46c-0.14-0.23-0.32-0.43-0.62-0.75
	c0,0-0.14-0.13-0.43-0.49c-0.35-0.28-0.7-0.56-1.07-0.77c0,0,0.07-0.02-0.14-0.51c-0.43-0.3-0.86-0.6-1.34-0.55
	c0,0,0-0.35-0.47-0.76c-2.74-1.25-5.39-3.28-8.24-3.6c-10.51-1.17-21.09-1.78-31.77-2.6c0,16.97,0,32.77,0,48.55
	c6.84,0,13.41,0.08,19.98-0.05c2.14-0.04,4.28-0.65,7.18-0.97c2.8-0.67,5.59-1.33,8.97-1.97c1.14-0.67,2.28-1.33,3.57-2.08
	c0,0,0.12-0.1,0.52-0.38c0.32-0.35,0.64-0.69,0.86-1.06c0,0,0.01,0.1,0.49-0.08C79.02,84.13,79.22,83.86,79.28,83.58z"/>
<path class="st1" d="M475.41,160.54c0,0-0.18,0.17-0.53,0.42c-9.5,0.18-18.65,0.11-27.8,0.04c0,0,0.08,0.38,0.18-0.09
	c0.01-47.81-0.08-95.15,0.25-142.51c14.14-0.03,27.86,0.15,41.58-0.12c12.05-0.23,23.81,0.99,35.16,5.21c0,0,0.19,0.12,0.55,0.25
	c1.42,0.57,2.48,1,3.54,1.44c0,0,0.06-0.11,0.16,0.11c0.6,0.45,1.08,0.67,1.57,0.9c0,0,0.19,0.01,0.32,0.17
	c0.97,0.6,1.8,1.03,2.64,1.46c0,0,0.03-0.13,0.09,0.12c0.53,0.5,1,0.76,1.46,1.02c0,0,0.34-0.2,0.32,0.06
	c0.27,0.4,0.56,0.53,0.86,0.66c0,0,0.02-0.14,0.09,0.11c0.74,0.77,1.41,1.3,2.09,1.82c0,0,0.14,0.25,0.35,0.41
	c0.32,0.3,0.45,0.4,0.62,0.47c0,0,0.11,0.21,0.3,0.39c0.32,0.34,0.48,0.47,0.67,0.56c0,0,0.11,0.14,0.26,0.32
	c0.28,0.34,0.43,0.47,0.61,0.57c0,0,0.12,0.23,0.29,0.39c0.27,0.3,0.4,0.4,0.55,0.47c0,0,0.1,0.28,0.38,0.56
	c0.83,0.88,1.39,1.49,1.94,2.1c0,0,0.14-0.15,0.1,0.11c0.06,0.52,0.21,0.75,0.43,0.95c0,0,0.08,0.17,0.3,0.47
	c0.83,1.22,1.43,2.14,2.04,3.06c0,0,0.03-0.14,0.03,0.15c0.3,0.75,0.59,1.22,0.88,1.68c0,0,0.03-0.12,0.05,0.23
	c5.97,16.39,5.69,32.14-2.19,47.53c0,0-0.08,0.12-0.26,0.39c-0.64,0.99-1.09,1.71-1.55,2.43c0,0-0.02,0.09-0.21,0.3
	c-0.66,0.86-1.12,1.52-1.58,2.17c0,0-0.28,0.14-0.52,0.45c-0.91,1.03-1.57,1.75-2.24,2.48c0,0-0.11,0.1-0.29,0.25
	c-0.36,0.28-0.5,0.45-0.61,0.64c0,0-0.14,0.1-0.41,0.32c-0.88,0.83-1.5,1.44-2.11,2.06c0,0,0.11,0.02-0.14,0.05
	c-0.49,0.26-0.72,0.5-0.96,0.73c0,0,0.16,0.03-0.06,0.01c-0.48,0.1-0.7,0.27-0.88,0.49c0,0-0.16,0.08-0.46,0.29
	c-1.23,0.8-2.16,1.39-3.1,1.97c0,0,0.14,0.03-0.15,0.05c-0.74,0.32-1.19,0.62-1.65,0.92c0,0,0.13,0.03-0.16,0.04
	c-0.75,0.3-1.21,0.59-1.68,0.88c0,0,0.12,0.03-0.24,0.05c-16.7,6.85-34.06,4.08-50.87,4.93
	C475.41,129.8,475.41,145.17,475.41,160.54 M518.22,82.64c0.18-0.29,0.36-0.59,0.42-0.89c0,0,0.03,0.12,0.47-0.07
	c0.28-0.39,0.55-0.78,0.97-1.31c0,0,0.07-0.19,0.32-0.52c0.11-0.26,0.2-0.52,0.13-0.82c0,0,0.03,0.13,0.58-0.29
	c3.54-9.23,3.67-18.22-1.96-26.99c0,0-0.16-0.13-0.44-0.51c-0.34-0.3-0.68-0.61-1.04-0.82c0,0,0.1,0-0.1-0.49
	c-0.28-0.19-0.56-0.39-0.94-0.98c-0.17-0.25-0.42-0.37-0.99-0.85c-0.94-0.6-1.88-1.2-2.99-1.97c0,0-0.24-0.05-0.59-0.27
	c-0.27-0.09-0.54-0.15-0.81-0.07c0,0,0.11-0.03-0.29-0.58c-2.96-0.71-5.91-1.41-9.11-2.36c-0.23-0.14-0.44-0.11-1.35-0.23
	c-1.33-0.08-2.66-0.15-4.84-0.37c-4.61,0.05-9.23,0.1-14.44,0.03c-0.4,0.04-0.81,0.08-1.94-0.04c-0.98,0.05-1.96,0.09-3.77,0.24
	c0,15.96,0,31.92,0,47.71c8.21,0,16.4,0.19,24.57-0.06c5.79-0.18,11.4-1.41,15.76-5.61c0,0,0.01,0.11,0.5-0.08
	c0.21-0.27,0.42-0.53,0.46-0.82c0,0,0.03,0.17,0.51-0.04c0.19-0.29,0.37-0.58,0.39-0.89C517.72,82.68,517.74,82.85,518.22,82.64z"/>
<path class="st0" d="M294.69,165.09c-1.87,0.02-3.75,0.05-6.35-0.03c-8.59-2.66-16.45-5.22-24.32-7.77c0,0-0.06,0.08-0.25-0.12
	c-0.49-0.3-0.8-0.39-1.1-0.48c0,0,0,0.1-0.09-0.17c-0.94-0.73-1.79-1.18-2.64-1.64c0,0-0.02,0.08-0.09-0.17
	c-0.5-0.54-0.94-0.82-1.37-1.11c0,0-0.09,0.11-0.27-0.15c-0.49-0.26-0.81-0.27-1.13-0.27c-2.44-2.34-4.89-4.67-7.62-7.46
	c-0.7-1.19-1.1-1.93-1.51-2.67c0,0-0.03,0.05-0.05-0.2c-0.29-0.45-0.55-0.64-0.81-0.84c0,0-0.01,0.12-0.03-0.12
	c-0.23-0.5-0.44-0.75-0.66-1c0,0-0.03,0.17-0.05-0.12c-0.37-0.69-0.72-1.09-1.07-1.49c0,0-0.02,0.09-0.06-0.23
	c-10.59-18.64-10.95-37.2-1.38-55.99c0,0-0.07-0.05,0.12-0.25c0.27-0.5,0.35-0.81,0.43-1.11c0,0-0.08,0,0.19-0.11
	c1.12-1.51,1.96-2.9,2.8-4.3c0,0-0.17-0.04,0.07-0.09c0.37-0.36,0.51-0.67,0.64-0.99c0,0-0.1,0,0.14-0.06
	c0.53-0.47,0.83-0.88,1.12-1.29c0,0-0.03-0.08,0.18-0.22c0.43-0.35,0.58-0.6,0.66-0.9c0,0-0.14-0.06,0.1-0.12
	c0.4-0.36,0.56-0.65,0.71-0.95c0,0-0.18-0.03,0.08-0.05c0.44-0.31,0.63-0.6,0.81-0.89c0,0-0.14-0.02,0.15-0.08
	c1.4-1.14,2.51-2.21,3.62-3.29c0,0-0.05-0.36,0.16-0.27c0.43-0.06,0.63-0.25,0.79-0.48c0,0,0.09-0.09,0.37-0.28
	c1.28-0.93,2.28-1.67,3.28-2.41c0,0,0.16-0.09,0.46-0.31c1.18-0.85,2.08-1.48,2.97-2.11c0,0-0.1-0.02,0.2-0.05
	c1.66-0.72,3.02-1.41,4.39-2.1c0,0,0.27-0.01,0.64-0.25c1.88-0.88,3.39-1.52,4.9-2.16c0,0-0.11-0.03,0.26-0.04
	c17.15-4.5,33.24-3.34,48.34,5.87c0,0,0.14,0.17,0.46,0.37c1.51,0.99,2.7,1.79,3.9,2.58c2.76,2.73,5.52,5.45,8.62,8.66
	c0.61,0.73,0.88,0.98,1.15,1.23c0,0-0.07-0.16,0.02,0.14c0.44,0.65,0.8,1.01,1.16,1.37c0,0,0.02-0.09,0.07,0.22
	c1.98,3.85,3.92,7.38,5.85,10.92c0,0-0.01,0.17,0.17,0.55c5.62,16.15,5.15,31.54-2.82,46.44c0,0,0.31,0.09,0,0.23
	c-0.52,0.53-0.72,0.92-0.92,1.31c0,0-0.18,0.16-0.32,0.45c-0.22,0.55-0.29,0.81-0.36,1.07c0,0,0.12,0.02-0.13,0.07
	c-0.52,0.51-0.79,0.96-1.06,1.42c0,0,0.11-0.05-0.1,0.16c-0.32,0.51-0.43,0.81-0.53,1.11c0,0,0.14,0.02-0.1,0.05
	c-0.4,0.33-0.55,0.63-0.7,0.93c0,0,0.08,0-0.16,0.08c-0.54,0.52-0.83,0.96-1.12,1.4c0.16,0.05,0.33,0.1,0.02,0.24
	c-1.45,1.28-2.43,2.48-3.42,3.67c0,0,0.09,0.02-0.19,0.09c-1.08,0.88-1.89,1.69-2.69,2.5c0,0,0.12,0.06-0.12,0.08
	c-0.47,0.25-0.69,0.47-0.91,0.7c0,0,0.18-0.07-0.08,0.04c-0.47,0.26-0.65,0.43-0.79,0.64c0,0-0.14,0.09-0.39,0.29
	c-0.57,0.53-0.89,0.86-1.21,1.19c0,0,0.08,0.02-0.2,0.07c-1.02,0.63-1.77,1.22-2.51,1.81c0,0,0.09,0.02-0.16,0.04
	c-0.5,0.21-0.76,0.41-1.02,0.6c0,0,0.14,0.01-0.15,0.06c-1.04,0.5-1.79,0.95-2.54,1.39c0,0-0.23,0.06-0.48,0.25
	c-0.61,0.37-0.97,0.54-1.33,0.72c0,0-0.18,0.04-0.5,0.23c-0.93,0.53-1.54,0.87-2.16,1.21c0,0,0.12,0.03-0.24,0.04
	C307.62,161.98,301.16,163.54,294.69,165.09 M310.29,134.22c0.17-0.12,0.32-0.27,0.67-0.56c0,0,0.13-0.23,0.47-0.49
	c0.39-0.41,0.77-0.83,1.38-1.38c0,0,0.1-0.24,0.36-0.43c0.16-0.14,0.29-0.31,0.44-0.61c0,0,0.09-0.08,0.43-0.43
	c0.45-0.68,0.89-1.35,1.57-2.2c0,0,0.07-0.28,0.36-0.77c0.75-1.55,1.49-3.1,2.36-4.95c0,0-0.22-0.24,0.24-0.72
	c2.87-9.02,2.82-17.9-1.31-26.66c0,0,0-0.09-0.25-0.56c-0.38-0.53-0.76-1.06-1.59-2.2c-1.15-1.34-2.29-2.67-3.32-4.25
	c-0.3-0.29-0.6-0.59-0.81-0.82c0,0,0.07-0.09,0.07-0.67c-0.6-0.47-1.21-0.94-1.84-1.32c0,0,0.09-0.02-0.1-0.46
	c-0.39-0.28-0.78-0.55-1.31-0.98c0,0-0.18-0.08-0.65-0.45c-10.13-5.89-20.25-6.32-30.25,0.08c0,0-0.01-0.11-0.5,0.04
	c-0.25,0.23-0.49,0.45-0.57,0.7c0,0-0.08-0.15-0.61,0.08c-0.68,0.65-1.37,1.3-1.97,1.97c0,0-0.01-0.09-0.48,0.1
	c-0.18,0.28-0.36,0.56-0.45,0.84c0,0-0.01-0.09-0.44,0.07c-0.29,0.35-0.58,0.69-1.11,1.19c0,0-0.09,0.26-0.35,0.5
	c-0.17,0.17-0.29,0.37-0.02,1.06c-0.12-0.15-0.23-0.29-0.73-0.05c-0.48,0.76-0.95,1.53-1.41,2.36c0,0-0.03,0.07-0.42,0.58
	c-5.52,11.43-5.47,22.8,0.38,34.15c0,0-0.03,0.05,0.24,0.52c0.34,0.38,0.68,0.77,1.04,1.03c0,0-0.13,0.02,0.04,0.52
	c0.34,0.38,0.68,0.76,1.13,1.74c1.52,1.35,3.04,2.7,4.79,4.58c0.96,0.61,1.93,1.22,2.95,1.79c0,0,0.06,0.04,0.58,0.41
	c8.98,4.06,17.86,4.97,26.44-0.83c0,0,0,0.1,0.58-0.04c0.47-0.27,0.94-0.54,1.31-0.83c0,0,0.01,0.1,0.48-0.1
	c0.17-0.29,0.33-0.59,0.38-0.89c0,0,0,0.11,0.44-0.02c0.33,0,0.6-0.12,0.94-0.42C309.9,134.44,310.01,134.37,310.29,134.22z"/>
<path class="st0" d="M653.3,140.61c0.44,0.08,0.88,0.16,2.01,0.24c1.95,0.16,3.2,0.33,4.43,0.48c0,6.94,0,13.5-0.43,20.03
	c-9.88-0.15-19.34-0.27-28.8-0.38c0,0,0.03,0.26,0.01,0c-0.34-0.38-0.65-0.5-0.97-0.62c0,0-0.01,0.12-0.04-0.12
	c-0.31-0.43-0.59-0.61-0.86-0.8c0,0-0.01,0.1-0.06-0.25c-0.88-3.89-1.71-7.44-2.57-11.13c-1.15,1.27-2.25,2.49-3.35,3.71
	c0,0,0.27,0.26-0.07,0.26c-0.58,0.17-0.77,0.39-0.92,0.65c0,0,0.14,0.24-0.12,0.25c-0.47,0.17-0.65,0.37-0.78,0.61
	c0,0-0.01,0.09-0.26,0.23c-0.58,0.5-0.91,0.87-1.24,1.24c-0.31-0.02-0.55,0.1-1.03,0.65c-0.52,0.56-0.74,0.81-0.96,1.07
	c0,0,0.16,0.02-0.09,0.02c-0.49,0.25-0.72,0.49-0.95,0.73c0,0,0.18,0.03-0.1,0.05c-0.69,0.37-1.08,0.73-1.48,1.08
	c0,0,0.1,0.02-0.23,0.07c-13.4,7.07-26.68,7.79-40.2,1.38c0,0-0.14-0.14-0.41-0.29c-0.53-0.24-0.8-0.32-1.08-0.39
	c0,0-0.02,0.12-0.1-0.15c-0.94-0.74-1.79-1.21-2.65-1.69c0,0-0.02,0.12-0.04-0.1c-0.37-0.48-0.72-0.75-1.07-1.02
	c0,0-0.15-0.27-0.47-0.54c-1.64-1.82-2.98-3.36-4.31-4.91c0,0-0.08-0.08-0.25-0.34c-0.45-0.65-0.74-1.03-1.03-1.42
	c0,0-0.03,0.13-0.08-0.22c-5.7-12.05-4.98-23.53,1.2-34.8c-0.17-0.08-0.34-0.17-0.06-0.32c0.81-0.67,1.18-1.27,1.55-1.87
	c0,0-0.08-0.02,0.19-0.1c1.04-0.94,1.8-1.79,2.56-2.64c0,0-0.09-0.02,0.15-0.06c0.45-0.3,0.66-0.56,0.87-0.82
	c0,0-0.16-0.02,0.09-0.02c0.5-0.21,0.75-0.42,1.01-0.63c0,0-0.16,0.08,0.19-0.07c1.66-0.91,2.97-1.68,4.28-2.45
	c0,0,0.16-0.02,0.53-0.21c16.15-6.27,33.05-5.56,50.45-8.15c-1.11-4.17-2.13-8.02-3.16-11.87c0,0,0.04-0.01-0.08-0.27
	c-0.47-0.64-0.82-1.01-1.17-1.39c0,0-0.02,0.1-0.07-0.14c-0.32-0.43-0.6-0.62-0.87-0.81c0,0-0.01,0.13-0.05-0.11
	c-0.32-0.42-0.61-0.59-0.89-0.76c0,0-0.01,0.09-0.08-0.17c-0.57-0.51-1.06-0.76-1.55-1.02c0,0-0.07,0.11-0.25-0.14
	c-12.58-4.44-24.51-3.06-36.07,2.76c0,0-0.15-0.01-0.52,0.16c-3.94,1.45-7.52,2.73-11.1,4c0,0-0.03,0.05-0.03-0.32
	c-0.55-6.82-1.1-13.27-1.65-19.72c0,0-0.13-0.01,0.11-0.05c0.41-0.33,0.58-0.61,0.75-0.9c0,0-0.1-0.01,0.14-0.05
	c0.43-0.31,0.62-0.58,0.8-0.85c0,0-0.09-0.01,0.19-0.05c1.05-0.6,1.81-1.17,2.58-1.73c0,0-0.1-0.03,0.11-0.02
	c0.51-0.03,0.77-0.14,0.99-0.35c0,0,0.15-0.05,0.4-0.2c0.64-0.34,1.02-0.53,1.41-0.72c0,0,0.16-0.04,0.52-0.23
	c7.38-1.89,14.32-4.23,21.43-5.09c6.83-0.83,13.85-0.11,20.79-0.08c3.75,0.97,7.49,1.95,11.73,3.19c1.2,0.56,1.91,0.86,2.61,1.15
	c0,0,0.2-0.02,0.3,0.15c0.56,0.37,1.03,0.58,1.49,0.79c0,0,0.2,0.04,0.28,0.17c0.39,0.2,0.7,0.28,1.01,0.36c0,0-0.01-0.09,0.08,0.17
	c0.59,0.51,1.08,0.75,1.58,1c0,0,0.04-0.18,0.07,0.06c0.34,0.38,0.66,0.53,0.97,0.67c0,0,0.01-0.1,0.05,0.13
	c0.42,0.51,0.81,0.8,1.19,1.08c0,0,0.12,0.13,0.31,0.31c0.35,0.37,0.54,0.5,0.77,0.6c0,0,0.22-0.19,0.25,0.1
	c0.21,0.51,0.43,0.69,0.68,0.82c0.14-0.09,0.29-0.17,0.33,0.06c0.07,0.52,0.26,0.7,0.49,0.84c0,0,0.09,0.06,0.2,0.25
	c0.23,0.35,0.38,0.49,0.56,0.59c0,0,0.1,0.21,0.33,0.46c0.56,0.55,0.89,0.86,1.22,1.16c0,0,0.02-0.11,0.05,0.14
	c0.24,0.5,0.45,0.75,0.66,1c0,0,0.03-0.17,0.06,0.12c0.37,0.7,0.71,1.11,1.05,1.51c0,0,0.02-0.12,0.04,0.16
	c0.32,0.73,0.63,1.18,0.93,1.62c0,0,0.03-0.09,0.02,0.11c0,0.47,0.09,0.72,0.25,0.95c0,0,0.01,0.29,0.27,0.69
	c1.24,6.94,2.85,13.46,3.07,20.03c0.45,13.36,0.1,26.74,0.23,40.11C651.6,138.38,652.71,139.5,653.3,140.61 M590.18,119.95
	c-0.2,0.24-0.4,0.48-0.45,1.03c0,0-0.2-0.29-0.62,0.19c-4,5.61-3.7,11.67,0.88,17.41c0,0-0.09,0,0.1,0.48
	c0.27,0.19,0.55,0.38,0.83,0.44c0,0-0.12,0.01,0.08,0.48c0.28,0.17,0.57,0.34,0.85,0.43c0,0-0.08,0.02,0.25,0.59
	c1.75,0.66,3.5,1.32,6.03,2.25c4.79-0.91,9.62-1.68,14.35-2.82c1.49-0.36,2.89-1.57,4.06-2.68c2.29-2.16,4.4-4.52,7.27-6.98
	c0.52-5.59,1.05-11.18,1.68-17.92c-10.87,1.61-20.57,3.04-30.73,4.84c-0.95,0.54-1.9,1.09-3.35,1.4c-0.28,0.23-0.55,0.45-0.51,1.06
	C590.8,119.99,590.7,119.86,590.18,119.95z"/>
<path class="st0" d="M139.71,154.06c-3.29-3.17-6.58-6.34-9.97-9.96c-0.08-0.7-0.13-0.94-0.27-1.16c0,0-0.01-0.34-0.29-0.64
	c-0.59-0.61-0.9-0.94-1.22-1.26c0,0-0.03,0.12-0.03-0.11c-0.16-0.49-0.32-0.74-0.48-1c0,0-0.07-0.05-0.23-0.34
	c-0.79-1.22-1.42-2.16-2.05-3.09c0,0-0.02,0.1-0.03-0.16c-0.38-1.03-0.76-1.79-1.13-2.55c0,0,0.02-0.39-0.27-0.76
	c-0.78-1.56-1.27-2.74-1.77-3.93c0,0,0.05-0.2-0.15-0.6c-5.13-15.3-3.89-29.81,2.56-43.99c0,0-0.12-0.02,0.15-0.12
	c1.12-1.67,1.97-3.22,2.83-4.78c0,0,0.17-0.14,0.35-0.45c0.5-0.88,0.82-1.45,1.15-2.02c0,0-0.08-0.02,0.17-0.08
	c0.54-0.5,0.83-0.94,1.12-1.37c0,0-0.15-0.1,0.12-0.27c0.27-0.48,0.27-0.8,0.27-1.11c2.61-2.38,5.22-4.75,8.34-7.44
	c1.88-1.37,3.25-2.43,4.63-3.49c0,0-0.07-0.03,0.25-0.07c19.69-10.72,39.12-10.76,58.62-0.43c0,0,0.12,0.08,0.37,0.24
	c0.53,0.24,0.81,0.32,1.09,0.4c0,0,0.01-0.11,0.08,0.15c0.56,0.51,1.05,0.76,1.55,1.01c0,0,0.06-0.16,0.13,0.06
	c0.38,0.34,0.69,0.47,1.01,0.59c0,0,0.01-0.1,0.05,0.13c0.43,0.52,0.82,0.8,1.21,1.09c0,0,0.12,0.09,0.32,0.28
	c0.43,0.38,0.68,0.5,0.97,0.55c0,0,0.03-0.14,0.11,0.12c0.67,0.67,1.27,1.08,1.87,1.49c0,0,0.02-0.11,0.06,0.13
	c0.33,0.42,0.61,0.6,0.9,0.78c0,0,0.01-0.12,0.05,0.12c0.32,0.42,0.59,0.6,0.87,0.79c0,0,0.01-0.09,0.08,0.19
	c1.15,1.41,2.22,2.55,3.3,3.68c0,0,0.05-0.12,0.12,0.17c1.09,1.66,2.11,3.03,3.13,4.39c0,0,0.08,0.26,0.36,0.59
	c1.97,3.66,3.66,6.99,5.34,10.32c0,0-0.08,0.23,0.11,0.65c4.42,13.28,4.56,26.12-0.09,38.91c0,0-0.03,0.12-0.18,0.44
	c-0.56,1.43-0.96,2.54-1.37,3.65c0,0,0.12,0.02-0.14,0.11c-0.42,0.65-0.58,1.21-0.75,1.76c0,0,0.12,0.01-0.15,0.1
	c-0.82,1.15-1.38,2.21-1.93,3.27c0,0,0.21,0.33-0.05,0.32c-0.46,0.37-0.67,0.75-0.87,1.13c0,0-0.23,0.17-0.4,0.44
	c-0.33,0.47-0.43,0.69-0.47,0.94c0,0,0.14,0.06-0.08,0.13c-0.36,0.38-0.49,0.69-0.62,1c0,0,0.11,0.01-0.12,0.05
	c-0.51,0.42-0.79,0.8-1.06,1.18c0,0-0.16,0.13-0.34,0.33c-0.35,0.35-0.48,0.54-0.58,0.75c0,0,0.02,0.08-0.2,0.23
	c-0.37,0.41-0.52,0.67-0.66,0.94c0,0,0.16,0.05-0.09,0.09c-0.42,0.33-0.6,0.62-0.77,0.91c0,0,0.17,0.03-0.08,0.06
	c-0.44,0.31-0.63,0.59-0.82,0.88c0,0,0.17,0.03-0.11,0.06c-0.77,0.6-1.27,1.15-1.76,1.71c0,0,0.17,0.04-0.09,0.06
	c-0.47,0.27-0.68,0.52-0.89,0.77c0,0,0.15,0.04-0.09,0.07c-0.45,0.25-0.66,0.48-0.86,0.7c0,0,0.14,0.34-0.1,0.26
	c-0.43,0.04-0.58,0.19-0.71,0.38c0,0-0.26,0.09-0.53,0.35c-0.93,0.74-1.6,1.22-2.26,1.7c0,0,0.02,0.14-0.25,0.22
	c-0.64,0.43-1.01,0.77-1.38,1.12c0,0,0.11,0.02-0.12,0.03c-0.5,0.18-0.76,0.35-1.03,0.53c0,0-0.04,0.05-0.35,0.19
	c-15.19,8.52-30.84,9.93-47.15,5.29c0,0-0.2-0.17-0.61-0.28c-3.52-1.5-6.63-2.9-9.74-4.29c0,0-0.02,0.12-0.27-0.12
	c-1.51-1.03-2.78-1.83-4.04-2.62c0,0-0.16-0.22-0.48-0.41C140.27,153.99,139.99,154.03,139.71,154.06 M155.17,133.78
	c0.27,0.14,0.54,0.27,0.99,0.84c0.28,0.13,0.56,0.26,1.04,0.87c0.44,0.28,0.89,0.57,1.68,1.13c0.28,0.13,0.56,0.2,1.21,0.78
	c8.53,4.11,17.15,4.63,26.43,0.44c0.84-0.51,1.68-1.03,2.95-1.85c0.71-0.54,1.42-1.07,2.52-1.86c0.21-0.23,0.42-0.45,0.92-0.85
	c0.18-0.14,0.32-0.31,0.85-0.81c0.21-0.28,0.42-0.56,0.95-1.14c0.19-0.23,0.3-0.49,0.74-1c0.12-0.29,0.23-0.57,0.88-1.1
	c0.41-0.86,0.82-1.73,1.73-2.85c0.29-0.68,0.59-1.35,1.21-2.63c3.54-9.59,4.07-19.1-0.76-29.03c-0.29-0.43-0.57-0.87-0.94-1.83
	c-0.31-0.4-0.63-0.8-1.03-1.77c-0.58-0.73-1.17-1.45-1.85-2.65c-0.26-0.17-0.52-0.33-0.92-0.94c-0.26-0.16-0.52-0.32-0.91-0.92
	c-0.26-0.16-0.51-0.32-0.92-0.93c-0.27-0.15-0.53-0.29-0.97-0.89c-0.28-0.13-0.55-0.26-1.09-0.85c-0.48-0.2-0.96-0.4-1.76-1.16
	c-9.13-5.05-18.38-5.38-28.22-0.47c-0.4,0.3-0.8,0.6-1.58,0.94c-0.25,0.08-0.46,0.22-1.13,0.68c-0.38,0.4-0.76,0.81-1.6,1.33
	c-0.18,0.24-0.36,0.49-0.98,0.86c-0.17,0.25-0.34,0.5-1.01,0.96c-0.4,0.59-0.79,1.18-1.64,1.93c-0.13,0.28-0.26,0.56-0.91,1.11
	c-0.59,1-1.17,2-2.13,3.55c-4.71,10.13-5.14,20.34-0.36,31.09c0.21,0.45,0.41,0.9,0.92,1.85c0.68,0.94,1.36,1.88,2.14,3.29
	c0.23,0.19,0.47,0.37,0.81,1.01c0.23,0.19,0.47,0.38,0.85,1c0.17,0.27,0.41,0.45,0.9,0.94
	C154.41,133.13,154.65,133.29,155.17,133.78z"/>
<path class="st2" d="M778.04,106.28c5.54,5.94,10.38,12.29,11.97,21.28c1.96,8.36,0.89,15.78-1.49,23.11c0,0-0.11,0.19-0.24,0.55
	c-0.76,1.8-1.39,3.24-2.03,4.68c0,0,0.07,0.01-0.18,0.13c-0.47,0.63-0.68,1.14-0.89,1.66c0,0,0.12,0.01-0.12,0.06
	c-0.52,0.47-0.8,0.9-1.08,1.32c0,0,0,0.09-0.22,0.3c-0.58,0.81-0.95,1.41-1.31,2c-1.05,1.28-2.1,2.55-3.57,4.13
	c-0.99,0.52-1.55,0.75-2.11,0.97c0.07,0.16,0.14,0.31-0.13,0.35c-0.71,0.24-1.09,0.59-1.47,0.95c0,0,0.1,0.02-0.15,0.04
	c-0.5,0.22-0.76,0.42-1.02,0.62c0,0,0.14,0.02-0.2,0.09c-11.94,6.58-23.88,6.34-36.03,1.93c0,0,0.01,0.09-0.1-0.15
	c-0.77-0.55-1.43-0.84-2.1-1.14c0,0-0.12-0.06-0.36-0.22c-0.51-0.25-0.79-0.33-1.07-0.39c0,0-0.01,0.12-0.07-0.13
	c-0.52-0.52-0.98-0.79-1.44-1.06c-0.11,0.17-0.23,0.35-0.38,0.07c-1.06-1.23-2.08-2.01-3.11-2.79c0,0-0.1-0.04-0.24-0.24
	c-0.31-0.41-0.52-0.57-0.76-0.68c0,0-0.22,0.16-0.25-0.11c-0.2-0.49-0.41-0.66-0.65-0.8c0,0-0.09,0.01-0.19-0.2
	c-0.26-0.41-0.46-0.58-0.69-0.71c0,0-0.09-0.03-0.25-0.3c-0.78-0.91-1.4-1.55-2.02-2.2c0,0-0.03,0.12-0.04-0.12
	c-0.2-0.5-0.4-0.76-0.59-1.02c0,0,0.03,0.25-0.08-0.11c-0.57-1.09-1.03-1.83-1.49-2.56c0,0-0.07-0.2-0.31-0.55
	c-5.94-12.75-5.74-25.14-0.15-37.51c0,0-0.12-0.02,0.15-0.11c0.82-1.08,1.38-2.08,1.94-3.07c0,0,0.07-0.11,0.29-0.38
	c1.13-1.46,2.05-2.66,2.97-3.86c0,0-0.07-0.02,0.17-0.08c0.54-0.42,0.84-0.78,1.15-1.15c0,0,0.06-0.1,0.31-0.28
	c0.56-0.54,0.88-0.89,1.2-1.25c0.31,0.02,0.55-0.09,1.02-0.65c0.51-0.56,0.73-0.82,0.95-1.08c0,0-0.16-0.02,0.08-0.01
	c0.5-0.19,0.75-0.39,1-0.59c0,0,0.06-0.16,0.28-0.19c0.93-0.49,1.64-0.94,2.36-1.39c0,0,0.21-0.05,0.46-0.23
	c0.62-0.35,0.98-0.52,1.35-0.69c0,0,0.23-0.04,0.59-0.28c11.32-4.52,22.24-4.55,33.1,0.07c0,0,0.22,0.26,0.55,0.38
	c0.58,0.19,0.83,0.26,1.09,0.31c0,0,0.02-0.12,0.13,0.16C774.47,104.39,776.26,105.34,778.04,106.28z"/>
<path class="st1" d="M673.59,161.16c0,0,0.06-0.35-0.01-0.92c-0.07-47.9-0.07-95.23-0.07-142.6c9.13,0,17.81,0,26.49,0
	c0,0,0.06-0.13,0.02,0.29c-0.04,26.56-0.01,52.7-0.05,78.83c-0.03,21.54-0.15,43.09-0.22,64.63c0,0,0.34,0-0.1-0.08
	C690.67,161.21,682.13,161.19,673.59,161.16z"/>
<path class="st1" d="M387.33,160.55c0,0-0.09,0.15-0.44,0.38c-8.89,0.29-17.42,0.35-25.96,0.41c0,0-0.08-0.43-0.13-1.05
	c-0.05-2.14-0.05-3.67-0.05-5.19c0.04-45.56,0.08-91.12,0.11-136.68c0,0-0.08-0.03,0.36-0.04c8.7-0.04,16.95-0.08,25.21-0.11
	c0,0,0.34,0.19,0.57,0.6C387.28,66.37,387.3,113.46,387.33,160.55z"/>
<path class="st3" d="M189.3,204.22c-9.55-0.31-18.39-0.31-27.23-0.31c0,0.26,0,0.52,0,0.78"/>
<path class="st3" d="M120.22,205.46c-8.02-0.02-16.05-0.22-24.06,0.02c-15.27,0.46-30.53,1.26-45.8,1.77
	c-6.86,0.23-13.74-0.01-20.61,0.15c-1.25,0.03-2.47,1.01-3.71,1.56c-3.8-0.11-7.6-0.22-11.75-0.89c-1.56-1.22-2.78-1.88-3.99-2.54
	c0,0,0.07-0.02,0.07-0.28c-0.32-0.7-0.64-1.14-0.96-1.58c0,0,0.07-0.01,0.03-0.35c-2.31-6.69-2.44-13.04-0.02-19.39
	c1.38-1.66,2.75-3.31,4.45-5.02c0.32-0.05,0.22,0.11,0.51,0.35c1.2,0.33,2.1,0.5,3,0.5c82.13,0.03,164.26,0.04,246.39,0.02
	c1.44,0,2.88-0.53,4.64-0.88c0.75-0.02,1.18,0.02,1.88,0.33c4.34,0.08,8.4-0.09,12.79-0.34c0.75-0.02,1.18,0.02,1.83,0.32
	c1.87,0.09,3.53-0.08,5.5-0.31c0.75-0.03,1.18,0.02,1.88,0.33c16.04,0.36,31.81,0.46,47.59,0.5c0.52,0,1.05-0.49,1.89-0.83
	c0.75-0.03,1.18,0.01,1.87,0.32c14.82,0.36,29.37,0.46,43.93,0.5c0.52,0,1.05-0.49,1.9-0.82c0.75-0.03,1.18,0.01,1.88,0.32
	c1.93,0.38,3.6,0.58,5.26,0.58c97.9,0.01,195.8,0.01,293.71,0.05c2.08,0,4.17,0.58,6.21,1.24c0.28,3.39,0.6,6.43,0.51,9.54
	c-2.02,0.05-3.64,0.04-5.55-0.21c-7.38-0.32-14.48-0.4-22.01-0.49c-14.07,0.29-27.71,0.56-41.34,0.97
	c-1.08,0.03-2.12,1.06-3.18,1.62c-0.43,0.04-0.86,0.08-1.88-0.19c-11.65-0.39-22.7-0.49-33.76-0.52c-0.66,0-1.33,0.56-2.43,0.85
	c-8.69,0.01-16.95,0.04-25.63,0.04c-3.2,0.54-5.98,1.1-8.76,1.67c-0.16,0.05-0.32,0.11-0.96,0.17c-0.63-0.03-0.78-0.08-1.2-0.4
	c-1.16-0.39-2.06-0.61-2.96-0.59c-12.15,0.28-24.3,0.61-36.46,0.89c-14.98,0.34-29.96,0.59-44.93,0.97
	c-4.39,0.11-8.76,0.75-13.15,0.83c-8.35,0.15-16.71,0-25.06,0.16c-1.23,0.02-2.45,1.03-3.92,1.63c-0.42,0.02-0.58-0.02-0.78-0.3
	c-0.32-0.51-0.6-0.77-0.89-1.03c-0.28,0.43-0.56,0.86-1.09,1.34c-0.43,0.01-0.61-0.02-0.91-0.23c-0.6-0.05-1.07,0.08-1.87,0.27
	c-0.77,0.03-1.21-0.01-1.94-0.31c-7.68-0.25-15.08-0.25-23.42-0.25c1.8,0.51,2.66,0.75,3.12,1.13c-3.18,0.2-5.98,0.24-9.04,0.03
	c-9.53-0.32-18.79-0.37-28.41-0.45c-19.04,0.57-37.71,1.17-56.39,1.73c-3.34,0.1-6.69-0.03-10.03,0.07
	c-17.76,0.53-35.52,1.07-53.28,1.68c-6.47,0.22-12.93,0.67-19.82,1.01c-7.7-0.01-14.96-0.01-22.23-0.01c0,0.34,0,0.68,0.01,1.02"/>
<path class="st1" d="M697.43,190.56c-0.32-3.05-0.64-6.09-0.68-9.58c0.37-0.93,0.47-1.42,0.99-2.01c7.08-0.1,13.74-0.25,20.38-0.01
	c1.93,0.07,3.81,1.26,5.72,1.94c0,0,0.02-0.09,0.06,0.32c-0.04,2.53-0.12,4.65-0.2,6.77c-0.49,0.39-0.97,0.78-1.93,1.48
	C713.34,190.04,705.39,190.3,697.43,190.56z"/>
</svg>
